<svg width="97" height="81" xmlns="http://www.w3.org/2000/svg">

 <g>
  <title>background</title>
  <rect fill="none" id="canvas_background" height="83" width="99" y="-1" x="-1"/>
 </g>
 <g>
  <title>Layer 1</title>
  <path opacity="0.2" id="svg_6" fill="#231F20" d="m54.857005,29.689895l0,-3.656c-0.018,0.894 -3.903,3.276 -5.174,4.107c0.457,-0.281 0.989,-0.451 1.565,-0.451l3.609,0z"/>
  <path opacity="0.2" id="svg_8" fill="#231F20" d="m54.857005,26.033895c0.005,-0.215 -0.215,-0.344 -0.751,-0.344l-13.858,0l-1,0l-3,0l0,3l0,14l0,3l3,0l1,0l8,0l0,-13c0,-0.237 0.029,-0.466 0.081,-0.688c0.15,-0.638 0.501,-1.198 0.985,-1.606c0.432,-0.364 5.523,-3.339 5.543,-4.362z"/>
  <path id="svg_12" fill="#680707" d="m54.857005,27.689895l0,-3.656c-0.018,0.894 -3.903,3.276 -5.174,4.107c0.457,-0.281 0.989,-0.451 1.565,-0.451l3.609,0z"/>
  <path id="svg_14" fill="#af1515" d="m54.857005,24.033895c0.005,-0.215 -0.215,-0.344 -0.751,-0.344l-13.858,0l-1,0l-3,0l0,3l0,14l0,3l3,0l1,0l8,0l0,-13c0,-0.237 0.029,-0.466 0.081,-0.688c0.15,-0.638 0.501,-1.198 0.985,-1.606c0.432,-0.364 5.523,-3.339 5.543,-4.362z"/>
  <path opacity="0.2" id="svg_16" fill="#231F20" d="m65.372036,26.201528l-10.391,0l0,-1l-4.609,0c-1.657,0 -3,1.343 -3,3l0,16l0,1c0,1.657 1.343,3 3,3l15,0c1.657,0 3,-1.343 3,-3l0,-16c0,-1.657 -1.343,-3 -3,-3z"/>
  <path id="svg_18" fill="#e63730" d="m64.875914,27.193773l-9,0l-5,0c-1.657,0 -3,1.343 -3,3l0,13l0,1c0,1.657 1.343,3 3,3l14,0c1.657,0 3,-1.343 3,-3l0,-14c0,-1.657 -1.343,-3 -3,-3z"/>
  <path opacity="0.2" id="svg_20" fill="#231F20" d="m36.248005,59.689895c0,1.105 -0.895,2 -2,2l0,0c-1.105,0 -2,-0.895 -2,-2l0,-34c0,-1.105 0.895,-2 2,-2l0,0c1.105,0 2,0.895 2,2l0,34z"/>
  <path id="svg_22" fill="#aecfdf" d="m36.248005,57.689895c0,1.105 -0.895,2 -2,2l0,0c-1.105,0 -2,-0.895 -2,-2l0,-34c0,-1.105 0.895,-2 2,-2l0,0c1.105,0 2,0.895 2,2l0,34z"/>
  <circle opacity="0.2" id="svg_24" r="3" fill="#231F20" cy="24.689895" cx="34.248005"/>
  <circle id="svg_26" r="3" fill="#aecfdf" cy="22.689895" cx="34.248005"/>
 </g>
</svg>